<svg width="30" height="30" viewBox="0 0 30 30" fill="none" xmlns="http://www.w3.org/2000/svg">
<rect x="1" y="1" width="28" height="28" rx="14" stroke="#1064F4" stroke-opacity="0.5"/>
<g clip-path="url(#clip0_255_2310)">
<path d="M15 8C13.6082 8.00185 12.2739 8.55556 11.2897 9.53973C10.3056 10.5239 9.75185 11.8582 9.75 13.25C9.75 17.0191 14.6412 21.7397 14.8491 21.9388C14.8895 21.978 14.9436 22 15 22C15.0564 22 15.1105 21.978 15.1509 21.9388C15.3587 21.7397 20.25 17.0191 20.25 13.25C20.2482 11.8582 19.6944 10.5239 18.7103 9.53973C17.7261 8.55556 16.3918 8.00185 15 8ZM15 15.6562C14.5241 15.6562 14.0589 15.5151 13.6632 15.2507C13.2675 14.9863 12.959 14.6105 12.7769 14.1708C12.5948 13.7311 12.5471 13.2473 12.64 12.7806C12.7328 12.3138 12.962 11.885 13.2985 11.5485C13.635 11.212 14.0638 10.9828 14.5306 10.89C14.9973 10.7971 15.4811 10.8448 15.9208 11.0269C16.3605 11.209 16.7363 11.5175 17.0007 11.9132C17.2651 12.3089 17.4062 12.7741 17.4062 13.25C17.4059 13.8881 17.1522 14.4999 16.7011 14.9511C16.2499 15.4022 15.6381 15.6559 15 15.6562Z" fill="#1064F4"/>
</g>
<defs>
<clipPath id="clip0_255_2310">
<rect width="14" height="14" fill="white" transform="translate(8 8)"/>
</clipPath>
</defs>
</svg>
