<svg width="48" height="48" viewBox="0 0 48 48" fill="none" xmlns="http://www.w3.org/2000/svg">
<path d="M26.818 3.18198C28.5754 1.42462 31.4246 1.42462 33.182 3.18198L44.818 14.818C46.5754 16.5754 46.5754 19.4246 44.818 21.182L33.182 32.818C31.4246 34.5754 28.5754 34.5754 26.818 32.818L15.182 21.182C13.4246 19.4246 13.4246 16.5754 15.182 14.818L26.818 3.18198Z" fill="url(#paint0_linear_144_2835)"/>
<path d="M5.3335 43.9998C5.3335 43.2635 5.93045 42.6665 6.66683 42.6665H25.3335C26.0699 42.6665 26.6668 43.2635 26.6668 43.9998C26.6668 44.7362 26.0699 45.3332 25.3335 45.3332H6.66683C5.93045 45.3332 5.3335 44.7362 5.3335 43.9998Z" fill="#D7E6FF"/>
<path d="M18.2782 19.8361C19.8403 18.274 22.3729 18.274 23.935 19.8361L25.4971 21.3982C27.0592 22.9603 27.0592 25.493 25.4971 27.0551L24.9428 27.6094L17.7238 20.3904L18.2782 19.8361Z" fill="#1064F4"/>
<path d="M7.72922 30.3958C7.54623 30.6141 7.41151 30.8694 7.33487 31.1451L5.3917 38.1355C5.08605 39.2351 6.09803 40.2471 7.19759 39.9414L14.188 37.9982C14.4637 37.9216 14.7191 37.7869 14.9373 37.6039L7.72922 30.3958Z" fill="#1064F4"/>
<path d="M24.9431 27.6096L17.7241 20.3906L7.84788 30.2667C7.80645 30.3082 7.76696 30.3513 7.72949 30.396L14.9376 37.6041C14.9823 37.5666 15.0254 37.5271 15.0668 37.4857L24.9431 27.6096Z" fill="#D7E6FF"/>
<defs>
<linearGradient id="paint0_linear_144_2835" x1="30" y1="0" x2="30" y2="36" gradientUnits="userSpaceOnUse">
<stop stop-color="#DEDEDE"/>
<stop offset="1" stop-color="#DEDEDE" stop-opacity="0"/>
</linearGradient>
</defs>
</svg>
