<svg width="48" height="48" viewBox="0 0 48 48" fill="none" xmlns="http://www.w3.org/2000/svg">
<path d="M26.818 3.18198C28.5754 1.42462 31.4246 1.42462 33.182 3.18198L44.818 14.818C46.5754 16.5754 46.5754 19.4246 44.818 21.182L33.182 32.818C31.4246 34.5754 28.5754 34.5754 26.818 32.818L15.182 21.182C13.4246 19.4246 13.4246 16.5754 15.182 14.818L26.818 3.18198Z" fill="url(#paint0_linear_702_900)"/>
<path fill-rule="evenodd" clip-rule="evenodd" d="M17.057 33.057C17.5777 32.5363 18.4219 32.5363 18.9426 33.057L27.6093 41.7237C28.13 42.2444 28.13 43.0886 27.6093 43.6093C27.0886 44.13 26.2444 44.13 25.7237 43.6093L17.057 34.9426C16.5363 34.4219 16.5363 33.5777 17.057 33.057Z" fill="#D7E6FF"/>
<path d="M13.3333 20C8.17868 20 4 24.1787 4 29.3333C4 34.488 8.17868 38.6667 13.3333 38.6667C18.488 38.6667 22.6667 34.488 22.6667 29.3333C22.6667 24.1787 18.488 20 13.3333 20Z" fill="#1064F4"/>
<defs>
<linearGradient id="paint0_linear_702_900" x1="30" y1="0" x2="30" y2="36" gradientUnits="userSpaceOnUse">
<stop stop-color="#DEDEDE"/>
<stop offset="1" stop-color="#DEDEDE" stop-opacity="0"/>
</linearGradient>
</defs>
</svg>
