<svg width="48" height="48" viewBox="0 0 48 48" fill="none" xmlns="http://www.w3.org/2000/svg">
<path d="M26.818 3.18198C28.5754 1.42462 31.4246 1.42462 33.182 3.18198L44.818 14.818C46.5754 16.5754 46.5754 19.4246 44.818 21.182L33.182 32.818C31.4246 34.5754 28.5754 34.5754 26.818 32.818L15.182 21.182C13.4246 19.4246 13.4246 16.5754 15.182 14.818L26.818 3.18198Z" fill="url(#paint0_linear_702_1731)"/>
<path d="M4 39.0329V28.5333C4 25.5464 4 24.0529 4.5813 22.9121C5.09262 21.9085 5.90852 21.0926 6.91205 20.5813C8.05291 20 9.54639 20 12.5333 20H19.4667C22.4536 20 23.9471 20 25.0879 20.5813C26.0915 21.0926 26.9074 21.9085 27.4187 22.9121C28 24.0529 28 25.5464 28 28.5333V30.1333C28 33.1203 28 34.6138 27.4187 35.7546C26.9074 36.7581 26.0915 37.574 25.0879 38.0854C23.9471 38.6667 22.4536 38.6667 19.4667 38.6667H13.8122C13.1439 38.6667 12.8098 38.6667 12.4962 38.7437C12.2182 38.812 11.9531 38.9247 11.7109 39.0773C11.4378 39.2494 11.2057 39.4899 10.7417 39.9708L9.50288 41.2548C7.7828 43.0376 6.92275 43.929 6.18189 43.9967C5.5393 44.0554 4.90788 43.8004 4.48619 43.312C4 42.7489 4 41.5103 4 39.0329Z" fill="#D7E6FF"/>
<path d="M10.6668 25.3335C9.93045 25.3335 9.3335 25.9304 9.3335 26.6668C9.3335 27.4032 9.93045 28.0002 10.6668 28.0002H21.3335C22.0699 28.0002 22.6668 27.4032 22.6668 26.6668C22.6668 25.9304 22.0699 25.3335 21.3335 25.3335H10.6668Z" fill="#1064F4"/>
<path d="M10.6668 30.6668C9.93045 30.6668 9.3335 31.2638 9.3335 32.0002C9.3335 32.7365 9.93045 33.3335 10.6668 33.3335H14.6668C15.4032 33.3335 16.0002 32.7365 16.0002 32.0002C16.0002 31.2638 15.4032 30.6668 14.6668 30.6668H10.6668Z" fill="#1064F4"/>
<defs>
<linearGradient id="paint0_linear_702_1731" x1="30" y1="0" x2="30" y2="36" gradientUnits="userSpaceOnUse">
<stop stop-color="#DEDEDE"/>
<stop offset="1" stop-color="#DEDEDE" stop-opacity="0"/>
</linearGradient>
</defs>
</svg>
