<svg width="48" height="48" viewBox="0 0 48 48" fill="none" xmlns="http://www.w3.org/2000/svg">
<path d="M26.818 3.18198C28.5754 1.42462 31.4246 1.42462 33.182 3.18198L44.818 14.818C46.5754 16.5754 46.5754 19.4246 44.818 21.182L33.182 32.818C31.4246 34.5754 28.5754 34.5754 26.818 32.818L15.182 21.182C13.4246 19.4246 13.4246 16.5754 15.182 14.818L26.818 3.18198Z" fill="url(#paint0_linear_702_2053)"/>
<path d="M5.33317 21.3335C3.86041 21.3335 2.6665 22.5274 2.6665 24.0002V37.3335C2.6665 38.8063 3.86041 40.0002 5.33317 40.0002H18.6665V24.0002C18.6665 22.5274 17.4726 21.3335 15.9998 21.3335H5.33317Z" fill="#D7E6FF"/>
<path d="M22.1499 25.3335H18.6665V40.0002H26.6665C28.1393 40.0002 29.3332 38.8063 29.3332 37.3335V32.1182C29.3332 31.3683 29.0174 30.653 28.4632 30.1477L23.9466 26.0296C23.4554 25.5818 22.8146 25.3335 22.1499 25.3335Z" fill="#1064F4"/>
<path fill-rule="evenodd" clip-rule="evenodd" d="M9.33317 42.6668C10.8059 42.6668 11.9998 41.4729 11.9998 40.0002C11.9998 38.5274 10.8059 37.3335 9.33317 37.3335C7.86041 37.3335 6.6665 38.5274 6.6665 40.0002C6.6665 41.4729 7.86041 42.6668 9.33317 42.6668ZM25.8855 41.8858C26.3856 41.3857 26.6665 40.7074 26.6665 40.0002H23.9998L21.3332 40.0002C21.3332 40.7074 21.6141 41.3857 22.1142 41.8858C22.6143 42.3859 23.2926 42.6668 23.9998 42.6668C24.7071 42.6668 25.3854 42.3859 25.8855 41.8858Z" fill="#1064F4"/>
<defs>
<linearGradient id="paint0_linear_702_2053" x1="30" y1="0" x2="30" y2="36" gradientUnits="userSpaceOnUse">
<stop stop-color="#DEDEDE"/>
<stop offset="1" stop-color="#DEDEDE" stop-opacity="0"/>
</linearGradient>
</defs>
</svg>
