<svg width="12" height="6" viewBox="0 0 12 6" fill="none" xmlns="http://www.w3.org/2000/svg">
<path d="M11.2828 3.28284C11.4391 3.12663 11.4391 2.87337 11.2828 2.71716L8.73726 0.171573C8.58105 0.0153632 8.32778 0.0153632 8.17157 0.171573C8.01536 0.327783 8.01536 0.581048 8.17157 0.737258L10.4343 3L8.17157 5.26274C8.01536 5.41895 8.01536 5.67222 8.17157 5.82843C8.32778 5.98464 8.58105 5.98464 8.73726 5.82843L11.2828 3.28284ZM1 2.6C0.779086 2.6 0.6 2.77909 0.6 3C0.6 3.22091 0.779086 3.4 1 3.4V2.6ZM11 2.6H1V3.4H11V2.6Z" fill="#4F5667"/>
</svg>
