<svg width="24" height="25" viewBox="0 0 24 25" fill="none" xmlns="http://www.w3.org/2000/svg">
    <path fill-rule="evenodd" clip-rule="evenodd"
        d="M20 4.34082H15C14.7239 4.34082 14.5 4.56468 14.5 4.84082V9.84082C14.5 10.117 14.7239 10.3408 15 10.3408H20C20.2761 10.3408 20.5 10.117 20.5 9.84082V4.84082C20.5 4.56468 20.2761 4.34082 20 4.34082ZM15 2.84082C13.8954 2.84082 13 3.73625 13 4.84082V9.84082C13 10.9454 13.8954 11.8408 15 11.8408H20C21.1046 11.8408 22 10.9454 22 9.84082V4.84082C22 3.73625 21.1046 2.84082 20 2.84082H15Z"
        fill="#1064F4" />
    <path fill-rule="evenodd" clip-rule="evenodd"
        d="M20 15.3408H15C14.7239 15.3408 14.5 15.5647 14.5 15.8408V20.8408C14.5 21.117 14.7239 21.3408 15 21.3408H20C20.2761 21.3408 20.5 21.117 20.5 20.8408V15.8408C20.5 15.5647 20.2761 15.3408 20 15.3408ZM15 13.8408C13.8954 13.8408 13 14.7363 13 15.8408V20.8408C13 21.9454 13.8954 22.8408 15 22.8408H20C21.1046 22.8408 22 21.9454 22 20.8408V15.8408C22 14.7363 21.1046 13.8408 20 13.8408H15Z"
        fill="#1064F4" />
    <path fill-rule="evenodd" clip-rule="evenodd"
        d="M9 4.34082H4C3.72386 4.34082 3.5 4.56468 3.5 4.84082V9.84082C3.5 10.117 3.72386 10.3408 4 10.3408H9C9.27614 10.3408 9.5 10.117 9.5 9.84082V4.84082C9.5 4.56468 9.27614 4.34082 9 4.34082ZM4 2.84082C2.89543 2.84082 2 3.73625 2 4.84082V9.84082C2 10.9454 2.89543 11.8408 4 11.8408H9C10.1046 11.8408 11 10.9454 11 9.84082V4.84082C11 3.73625 10.1046 2.84082 9 2.84082H4Z"
        fill="#1064F4" />
    <path
        d="M9 15.3408H4C3.72386 15.3408 3.5 15.5647 3.5 15.8408V19.0908C3.5 19.505 3.16421 19.8408 2.75 19.8408C2.33579 19.8408 2 19.505 2 19.0908V15.8408C2 14.7363 2.89543 13.8408 4 13.8408H9C10.1046 13.8408 11 14.7363 11 15.8408V20.8408C11 21.9454 10.1046 22.8408 9 22.8408H5.75C5.33579 22.8408 5 22.505 5 22.0908C5 21.6766 5.33579 21.3408 5.75 21.3408H9C9.27614 21.3408 9.5 21.117 9.5 20.8408V15.8408C9.5 15.5647 9.27614 15.3408 9 15.3408Z"
        fill="#1064F4" />
</svg>