<svg width="18" height="18" viewBox="0 0 18 18" fill="none" xmlns="http://www.w3.org/2000/svg">
    <path
        d="M5.46967 4.99194C5.76256 4.69905 6.23744 4.69905 6.53033 4.99194L9.00001 7.46162L11.4697 4.99195C11.7626 4.69905 12.2374 4.69905 12.5303 4.99195C12.8232 5.28484 12.8232 5.75971 12.5303 6.05261L10.0607 8.52228L12.5303 10.9919C12.8232 11.2848 12.8232 11.7597 12.5303 12.0526C12.2374 12.3455 11.7626 12.3455 11.4697 12.0526L9.00001 9.58294L6.53034 12.0526C6.23744 12.3455 5.76257 12.3455 5.46968 12.0526C5.17678 11.7597 5.17678 11.2848 5.46968 10.9919L7.93935 8.52228L5.46967 6.0526C5.17678 5.75971 5.17678 5.28483 5.46967 4.99194Z"
        fill="#1064F4" />
    <path fill-rule="evenodd" clip-rule="evenodd"
        d="M4.31673 0.291036C7.40429 -0.0540433 10.5957 -0.0540433 13.6832 0.291036C15.5096 0.495161 16.9845 1.9338 17.1994 3.77077C17.5686 6.92769 17.5686 10.1169 17.1994 13.2738C16.9845 15.1108 15.5096 16.5494 13.6832 16.7535C10.5957 17.0986 7.40429 17.0986 4.31673 16.7535C2.49035 16.5494 1.01545 15.1108 0.800605 13.2738C0.431374 10.1169 0.431374 6.92769 0.800605 3.77077C1.01545 1.9338 2.49035 0.495161 4.31673 0.291036ZM13.5166 1.78175C10.5398 1.44905 7.46017 1.44905 4.48334 1.78175C3.33891 1.90966 2.42286 2.81291 2.29045 3.94502C1.93476 6.98616 1.93476 10.0584 2.29045 13.0996C2.42286 14.2317 3.33891 15.1349 4.48334 15.2628C7.46017 15.5955 10.5398 15.5955 13.5166 15.2628C14.6611 15.1349 15.5771 14.2317 15.7095 13.0996C16.0652 10.0584 16.0652 6.98617 15.7095 3.94502C15.5771 2.81291 14.6611 1.90966 13.5166 1.78175Z"
        fill="#1064F4" />
</svg>