<svg width="18" height="14" viewBox="0 0 18 14" fill="none" xmlns="http://www.w3.org/2000/svg">
<path d="M16.3334 2.33329H1.66717C1.29918 2.33329 1.00053 2.03463 1.00053 1.66664C1.00053 1.29866 1.29918 1 1.66717 1H16.3334C16.7013 1 17 1.29866 17 1.66664C17 2.03463 16.7013 2.33329 16.3334 2.33329Z" fill="#212737"/>
<path d="M16.4578 7.66645H4.20823C3.90924 7.66645 3.66658 7.36779 3.66658 6.9998C3.66658 6.63182 3.90924 6.33316 4.20823 6.33316H16.4578C16.7568 6.33316 16.9995 6.63182 16.9995 6.9998C16.9995 7.36779 16.7568 7.66645 16.4578 7.66645Z" fill="#212737"/>
<path d="M16.3328 12.9996H1.66664C1.29866 12.9996 1 12.701 1 12.333C1 11.965 1.29866 11.6663 1.66664 11.6663H16.3328C16.7008 11.6663 16.9995 11.965 16.9995 12.333C16.9995 12.701 16.7008 12.9996 16.3328 12.9996Z" fill="#212737"/>
<path d="M16.3334 2.33329H1.66717C1.29918 2.33329 1.00053 2.03463 1.00053 1.66664C1.00053 1.29866 1.29918 1 1.66717 1H16.3334C16.7013 1 17 1.29866 17 1.66664C17 2.03463 16.7013 2.33329 16.3334 2.33329Z" stroke="#212737"/>
<path d="M16.4578 7.66645H4.20823C3.90924 7.66645 3.66658 7.36779 3.66658 6.9998C3.66658 6.63182 3.90924 6.33316 4.20823 6.33316H16.4578C16.7568 6.33316 16.9995 6.63182 16.9995 6.9998C16.9995 7.36779 16.7568 7.66645 16.4578 7.66645Z" stroke="#212737"/>
<path d="M16.3328 12.9996H1.66664C1.29866 12.9996 1 12.701 1 12.333C1 11.965 1.29866 11.6663 1.66664 11.6663H16.3328C16.7008 11.6663 16.9995 11.965 16.9995 12.333C16.9995 12.701 16.7008 12.9996 16.3328 12.9996Z" stroke="#212737"/>
</svg>
