<svg width="18" height="18" viewBox="0 0 18 18" fill="none" xmlns="http://www.w3.org/2000/svg">
<g clip-path="url(#clip0_622_2761)">
<path d="M0.930105 18C0.693001 18 0.455897 17.9099 0.275751 17.7284C-0.085895 17.3667 -0.085895 16.7804 0.275751 16.4187L16.4233 0.271235C16.7849 -0.0904116 17.3712 -0.0904116 17.7329 0.271235C18.0945 0.632881 18.0945 1.2192 17.7329 1.58107L1.58559 17.7284C1.40409 17.9087 1.16698 18 0.930105 18Z" fill="#1064F4"/>
<path d="M17.0787 18C16.8416 18 16.6048 17.9099 16.4244 17.7284L0.275751 1.58107C-0.085895 1.2192 -0.085895 0.632881 0.275751 0.271235C0.637398 -0.0904116 1.22372 -0.0904116 1.58559 0.271235L17.7329 16.4187C18.0945 16.7804 18.0945 17.3667 17.7329 17.7284C17.5514 17.9087 17.3145 18 17.0787 18Z" fill="#1064F4"/>
</g>
<defs>
<clipPath id="clip0_622_2761">
<rect width="18" height="18" fill="white"/>
</clipPath>
</defs>
</svg>
