<svg width="26" height="26" viewBox="0 0 26 26" fill="none" xmlns="http://www.w3.org/2000/svg">
<path d="M14.625 6.5H13.8125V3.25C13.8125 2.8013 13.4487 2.4375 13 2.4375C12.5513 2.4375 12.1875 2.8013 12.1875 3.25V6.5H11.375C10.4788 6.5 9.75 7.22881 9.75 8.125V9.75C9.75 10.6462 10.4788 11.375 11.375 11.375H12.1875V22.75C12.1875 23.1987 12.5513 23.5625 13 23.5625C13.4487 23.5625 13.8125 23.1987 13.8125 22.75V11.375H14.625C15.5212 11.375 16.25 10.6462 16.25 9.75V8.125C16.25 7.22881 15.5212 6.5 14.625 6.5ZM14.625 9.75H11.375V8.125H14.625V9.75ZM21.9375 14.625H21.125V3.25C21.125 2.8013 20.7612 2.4375 20.3125 2.4375C19.8638 2.4375 19.5 2.8013 19.5 3.25V14.625H18.6875C17.7913 14.625 17.0625 15.3538 17.0625 16.25V17.875C17.0625 18.7712 17.7913 19.5 18.6875 19.5H19.5V22.75C19.5 23.1987 19.8638 23.5625 20.3125 23.5625C20.7612 23.5625 21.125 23.1987 21.125 22.75V19.5H21.9375C22.8337 19.5 23.5625 18.7712 23.5625 17.875V16.25C23.5625 15.3538 22.8337 14.625 21.9375 14.625ZM21.9375 17.875H18.6875V16.25H21.9375V17.875ZM7.3125 14.625H6.5V3.25C6.5 2.8013 6.1362 2.4375 5.6875 2.4375C5.2388 2.4375 4.875 2.8013 4.875 3.25V14.625H4.0625C3.16631 14.625 2.4375 15.3538 2.4375 16.25V17.875C2.4375 18.7712 3.16631 19.5 4.0625 19.5H4.875V22.75C4.875 23.1987 5.2388 23.5625 5.6875 23.5625C6.1362 23.5625 6.5 23.1987 6.5 22.75V19.5H7.3125C8.20869 19.5 8.9375 18.7712 8.9375 17.875V16.25C8.9375 15.3538 8.20869 14.625 7.3125 14.625ZM7.3125 17.875H4.0625V16.25H7.3125V17.875Z" fill="#1064F4"/>
</svg>
