<svg width="12" height="8" viewBox="0 0 12 8" fill="none" xmlns="http://www.w3.org/2000/svg">
<path d="M12 1.20324C12.0005 1.29526 11.9837 1.38648 11.9505 1.47167C11.9173 1.55685 11.8685 1.63433 11.8067 1.69967L6.47458 7.29318C6.41262 7.35871 6.3389 7.41073 6.25768 7.44623C6.17646 7.48172 6.08935 7.5 6.00136 7.5C5.91337 7.5 5.82625 7.48172 5.74503 7.44623C5.66381 7.41073 5.59009 7.35871 5.52813 7.29318L0.196016 1.69967C0.0705092 1.56801 0 1.38944 0 1.20324C0 1.01705 0.0705092 0.83848 0.196016 0.70682C0.321524 0.57516 0.491748 0.501194 0.669242 0.501194C0.846736 0.501194 1.01696 0.57516 1.14247 0.70682L6.00136 5.8109L10.8602 0.70682C10.9222 0.641285 10.9959 0.589269 11.0771 0.553772C11.1584 0.518275 11.2455 0.5 11.3335 0.5C11.4215 0.5 11.5086 0.518275 11.5898 0.553772C11.671 0.589269 11.7447 0.641285 11.8067 0.70682C11.8685 0.772152 11.9173 0.849632 11.9505 0.934819C11.9837 1.02001 12.0005 1.11123 12 1.20324Z" fill="#1064F4"/>
</svg>
