<svg width="14" height="14" viewBox="0 0 14 14" fill="none" xmlns="http://www.w3.org/2000/svg">
<path d="M7.875 3.5H7.4375V1.75C7.4375 1.50839 7.24161 1.3125 7 1.3125C6.75839 1.3125 6.5625 1.50839 6.5625 1.75V3.5H6.125C5.64244 3.5 5.25 3.89244 5.25 4.375V5.25C5.25 5.73256 5.64244 6.125 6.125 6.125H6.5625V12.25C6.5625 12.4916 6.75839 12.6875 7 12.6875C7.24161 12.6875 7.4375 12.4916 7.4375 12.25V6.125H7.875C8.35756 6.125 8.75 5.73256 8.75 5.25V4.375C8.75 3.89244 8.35756 3.5 7.875 3.5ZM7.875 5.25H6.125V4.375H7.875V5.25ZM11.8125 7.875H11.375V1.75C11.375 1.50839 11.1791 1.3125 10.9375 1.3125C10.6959 1.3125 10.5 1.50839 10.5 1.75V7.875H10.0625C9.57994 7.875 9.1875 8.26744 9.1875 8.75V9.625C9.1875 10.1076 9.57994 10.5 10.0625 10.5H10.5V12.25C10.5 12.4916 10.6959 12.6875 10.9375 12.6875C11.1791 12.6875 11.375 12.4916 11.375 12.25V10.5H11.8125C12.2951 10.5 12.6875 10.1076 12.6875 9.625V8.75C12.6875 8.26744 12.2951 7.875 11.8125 7.875ZM11.8125 9.625H10.0625V8.75H11.8125V9.625ZM3.9375 7.875H3.5V1.75C3.5 1.50839 3.30411 1.3125 3.0625 1.3125C2.82089 1.3125 2.625 1.50839 2.625 1.75V7.875H2.1875C1.70494 7.875 1.3125 8.26744 1.3125 8.75V9.625C1.3125 10.1076 1.70494 10.5 2.1875 10.5H2.625V12.25C2.625 12.4916 2.82089 12.6875 3.0625 12.6875C3.30411 12.6875 3.5 12.4916 3.5 12.25V10.5H3.9375C4.42006 10.5 4.8125 10.1076 4.8125 9.625V8.75C4.8125 8.26744 4.42006 7.875 3.9375 7.875ZM3.9375 9.625H2.1875V8.75H3.9375V9.625Z" fill="#787878"/>
</svg>
