<svg width="374" height="63" viewBox="0 0 374 63" fill="none" xmlns="http://www.w3.org/2000/svg">
<path d="M77.4336 35V15.4492H80.6602V33.0996H81.3848C81.5944 32.6257 82.0046 31.7826 82.6152 30.5703C83.235 29.3581 83.6178 28.5924 83.7637 28.2734L89.7793 15.4492H95.7266V35H92.5V17.3633H91.7754C91.2741 18.5208 90.5632 20.0612 89.6426 21.9844L83.3672 35H77.4336ZM100.594 35V20.166H103.67V26.0723H113.5V20.166H116.59V35H113.5V28.8066H103.67V35H100.594ZM119.611 22.9004V20.166H135.662V22.9004H129.154V35H126.078V22.9004H119.611ZM137.48 27.4668C137.48 24.7962 138.273 22.7956 139.859 21.4648C141.454 20.125 143.715 19.4551 146.641 19.4551C149.703 19.4551 151.982 20.1751 153.477 21.6152C154.98 23.0553 155.719 25.2747 155.691 28.2734H140.598C140.652 29.9232 141.195 31.1172 142.225 31.8555C143.264 32.5846 144.754 32.9492 146.695 32.9492C148.272 32.9492 149.53 32.7806 150.469 32.4434C151.408 32.097 152.073 31.4727 152.465 30.5703H155.486C155.14 32.1745 154.21 33.3958 152.697 34.2344C151.193 35.0638 149.174 35.4785 146.641 35.4785C145.173 35.4785 143.888 35.3327 142.785 35.041C141.682 34.7493 140.73 34.2891 139.928 33.6602C139.126 33.0312 138.515 32.2018 138.096 31.1719C137.686 30.1328 137.48 28.8978 137.48 27.4668ZM140.625 26.209H152.547C152.355 24.6595 151.768 23.5339 150.783 22.832C149.808 22.1302 148.418 21.7793 146.613 21.7793C144.745 21.7793 143.318 22.1348 142.334 22.8457C141.35 23.5475 140.78 24.6686 140.625 26.209ZM157.018 35.0547V32.334H157.605C158.535 32.334 159.173 32.0514 159.52 31.4863C159.875 30.9121 160.121 29.7956 160.258 28.1367C160.422 26.1953 160.545 23.5384 160.627 20.166H174.176V35H171.1V22.8184H163.402C163.339 24.8327 163.225 26.6055 163.061 28.1367C162.979 29.0573 162.883 29.8366 162.773 30.4746C162.673 31.1126 162.532 31.7051 162.35 32.252C162.167 32.7988 161.953 33.2409 161.707 33.5781C161.47 33.9062 161.165 34.1888 160.791 34.4258C160.426 34.6536 160.003 34.8177 159.52 34.918C159.046 35.0091 158.48 35.0547 157.824 35.0547H157.018ZM176.951 35.0547V32.334H177.539C178.469 32.334 179.107 32.0514 179.453 31.4863C179.809 30.9121 180.055 29.7956 180.191 28.1367C180.355 26.1953 180.479 23.5384 180.561 20.166H194.109V35H191.033V22.8184H183.336C183.272 24.8327 183.158 26.6055 182.994 28.1367C182.912 29.0573 182.816 29.8366 182.707 30.4746C182.607 31.1126 182.465 31.7051 182.283 32.252C182.101 32.7988 181.887 33.2409 181.641 33.5781C181.404 33.9062 181.098 34.1888 180.725 34.4258C180.36 34.6536 179.936 34.8177 179.453 34.918C178.979 35.0091 178.414 35.0547 177.758 35.0547H176.951ZM197.91 27.4668C197.91 24.7962 198.703 22.7956 200.289 21.4648C201.884 20.125 204.145 19.4551 207.07 19.4551C210.133 19.4551 212.411 20.1751 213.906 21.6152C215.41 23.0553 216.148 25.2747 216.121 28.2734H201.027C201.082 29.9232 201.624 31.1172 202.654 31.8555C203.693 32.5846 205.184 32.9492 207.125 32.9492C208.702 32.9492 209.96 32.7806 210.898 32.4434C211.837 32.097 212.503 31.4727 212.895 30.5703H215.916C215.57 32.1745 214.64 33.3958 213.127 34.2344C211.623 35.0638 209.604 35.4785 207.07 35.4785C205.603 35.4785 204.318 35.3327 203.215 35.041C202.112 34.7493 201.16 34.2891 200.357 33.6602C199.555 33.0312 198.945 32.2018 198.525 31.1719C198.115 30.1328 197.91 28.8978 197.91 27.4668ZM201.055 26.209H212.977C212.785 24.6595 212.197 23.5339 211.213 22.832C210.238 22.1302 208.848 21.7793 207.043 21.7793C205.174 21.7793 203.748 22.1348 202.764 22.8457C201.779 23.5475 201.21 24.6686 201.055 26.209ZM219.812 35V20.166H222.889V26.0996H224.188L231.27 20.166H235.125L226.703 27.2207L235.412 35H231.242L224.105 28.6426H222.889V35H219.812ZM236.014 22.9004V20.166H252.064V22.9004H245.557V35H242.48V22.9004H236.014ZM261.949 25.2793C261.949 18.5254 265.654 15.1484 273.064 15.1484C274.596 15.1484 275.977 15.2943 277.207 15.5859C278.447 15.8685 279.545 16.306 280.502 16.8984C281.468 17.4818 282.252 18.2474 282.854 19.1953C283.455 20.1432 283.852 21.2507 284.043 22.5176H280.57C280.215 20.9316 279.431 19.7878 278.219 19.0859C277.007 18.3841 275.288 18.0332 273.064 18.0332C271.615 18.0332 270.389 18.1927 269.387 18.5117C268.393 18.8307 267.609 19.3138 267.035 19.9609C266.461 20.599 266.046 21.3509 265.791 22.2168C265.545 23.0736 265.422 24.0944 265.422 25.2793C265.422 26.4733 265.545 27.5033 265.791 28.3691C266.046 29.235 266.461 29.9915 267.035 30.6387C267.609 31.2858 268.393 31.7689 269.387 32.0879C270.389 32.4069 271.615 32.5664 273.064 32.5664C275.279 32.5664 277.002 32.2064 278.232 31.4863C279.463 30.7572 280.242 29.6042 280.57 28.0273H284.043C283.861 29.3034 283.469 30.4199 282.867 31.377C282.266 32.3249 281.486 33.0951 280.529 33.6875C279.572 34.2708 278.474 34.7083 277.234 35C275.995 35.2826 274.605 35.4238 273.064 35.4238C265.654 35.4238 261.949 32.0423 261.949 25.2793ZM285.834 22.9004V20.166H301.885V22.9004H295.377V35H292.301V22.9004H285.834ZM304.879 40.6055V20.0703H307.736L307.764 21.8613C309.24 20.2207 311.387 19.4004 314.203 19.4004C317.047 19.4004 319.148 20.0794 320.506 21.4375C321.864 22.7956 322.543 24.8053 322.543 27.4668C322.543 30.1283 321.864 32.1335 320.506 33.4824C319.148 34.8314 317.047 35.5059 314.203 35.5059C311.505 35.5059 309.423 34.804 307.955 33.4004V40.6055H304.879ZM309.281 23.4473C308.215 24.4043 307.682 25.7441 307.682 27.4668C307.682 29.1895 308.215 30.5293 309.281 31.4863C310.348 32.4434 311.765 32.9219 313.533 32.9219C315.548 32.9219 317.029 32.4935 317.977 31.6367C318.934 30.7708 319.412 29.3809 319.412 27.4668C319.412 25.5436 318.934 24.1536 317.977 23.2969C317.029 22.4401 315.548 22.0117 313.533 22.0117C311.765 22.0117 310.348 22.4902 309.281 23.4473ZM325.277 27.4668C325.277 24.7051 326.052 22.6725 327.602 21.3691C329.151 20.0566 331.448 19.4004 334.492 19.4004C337.564 19.4004 339.87 20.0566 341.41 21.3691C342.96 22.6725 343.734 24.7051 343.734 27.4668C343.734 30.2103 342.955 32.2428 341.396 33.5645C339.838 34.877 337.536 35.5332 334.492 35.5332C331.448 35.5332 329.151 34.877 327.602 33.5645C326.052 32.2428 325.277 30.2103 325.277 27.4668ZM328.395 27.4668C328.395 29.3262 328.868 30.7025 329.816 31.5957C330.764 32.4798 332.323 32.9219 334.492 32.9219C336.661 32.9219 338.22 32.4798 339.168 31.5957C340.125 30.7025 340.604 29.3262 340.604 27.4668C340.604 25.5983 340.13 24.222 339.182 23.3379C338.234 22.4538 336.671 22.0117 334.492 22.0117C332.323 22.0117 330.764 22.4538 329.816 23.3379C328.868 24.222 328.395 25.5983 328.395 27.4668ZM347.508 35V20.166H350.557V33.1543H351.268C353.4 29.2077 355.807 24.8783 358.486 20.166H363.996V35H360.947V21.9844H360.25C358.5 25.2474 356.085 29.5859 353.004 35H347.508ZM349.381 13.7539H352.471C352.525 14.5742 352.799 15.1712 353.291 15.5449C353.783 15.9186 354.608 16.1055 355.766 16.1055C356.914 16.1055 357.734 15.9186 358.227 15.5449C358.719 15.1712 358.992 14.5742 359.047 13.7539H362.15C362.123 15.2396 361.567 16.3151 360.482 16.9805C359.407 17.6458 357.835 17.9785 355.766 17.9785C353.697 17.9785 352.124 17.6458 351.049 16.9805C349.973 16.3151 349.417 15.2396 349.381 13.7539Z" fill="#212737"/>
<path d="M76.9561 53V47.1724H78.1646V49.5034H78.6748L81.457 47.1724H82.9717L79.6631 49.9438L83.0845 53H81.4463L78.6426 50.5024H78.1646V53H76.9561ZM83.4229 50.0405C83.4229 48.9556 83.7272 48.1571 84.3359 47.645C84.9447 47.1294 85.847 46.8716 87.043 46.8716C88.2497 46.8716 89.1556 47.1294 89.7607 47.645C90.3695 48.1571 90.6738 48.9556 90.6738 50.0405C90.6738 51.1183 90.3677 51.9168 89.7554 52.436C89.1431 52.9517 88.2389 53.2095 87.043 53.2095C85.847 53.2095 84.9447 52.9517 84.3359 52.436C83.7272 51.9168 83.4229 51.1183 83.4229 50.0405ZM84.6475 50.0405C84.6475 50.771 84.8337 51.3117 85.2061 51.6626C85.5785 52.0099 86.1908 52.1836 87.043 52.1836C87.8952 52.1836 88.5075 52.0099 88.8799 51.6626C89.2559 51.3117 89.4438 50.771 89.4438 50.0405C89.4438 49.3065 89.2576 48.7658 88.8853 48.4185C88.5129 48.0711 87.8988 47.8975 87.043 47.8975C86.1908 47.8975 85.5785 48.0711 85.2061 48.4185C84.8337 48.7658 84.6475 49.3065 84.6475 50.0405ZM92.1562 53V47.1724H94.4443L95.2017 50.1426C95.2518 50.3288 95.4326 51.0324 95.7441 52.2534H96.0181C96.1613 51.6089 96.3332 50.9053 96.5337 50.1426L97.3179 47.1724H99.5952V53H98.4512V47.8867H98.1396C97.6992 49.6126 97.2337 51.3171 96.7432 53H95.019C94.5177 51.36 94.0487 49.6556 93.6118 47.8867H93.311V53H92.1562ZM101.513 53V47.1724H107.77V53H106.562V48.2466H102.721V53H101.513ZM108.866 53.0215V51.9526H109.097C109.462 51.9526 109.713 51.8416 109.849 51.6196C109.988 51.394 110.085 50.9554 110.139 50.3037C110.203 49.541 110.251 48.4972 110.284 47.1724H115.606V53H114.398V48.2144H111.374C111.349 49.0057 111.304 49.7021 111.24 50.3037C111.208 50.6654 111.17 50.9715 111.127 51.2222C111.088 51.4728 111.032 51.7056 110.96 51.9204C110.889 52.1353 110.805 52.3089 110.708 52.4414C110.615 52.5703 110.495 52.6813 110.348 52.7744C110.205 52.8639 110.038 52.9284 109.849 52.9678C109.662 53.0036 109.44 53.0215 109.183 53.0215H108.866ZM117.1 50.0405C117.1 48.9914 117.411 48.2054 118.034 47.6826C118.661 47.1562 119.549 46.8931 120.698 46.8931C121.901 46.8931 122.797 47.1759 123.384 47.7417C123.975 48.3075 124.265 49.1794 124.254 50.3574H118.324C118.346 51.0055 118.559 51.4746 118.963 51.7646C119.372 52.0511 119.957 52.1943 120.72 52.1943C121.339 52.1943 121.833 52.1281 122.202 51.9956C122.571 51.8595 122.832 51.6143 122.986 51.2598H124.173C124.037 51.89 123.672 52.3698 123.078 52.6992C122.487 53.0251 121.694 53.188 120.698 53.188C120.122 53.188 119.617 53.1307 119.184 53.0161C118.75 52.9015 118.376 52.7207 118.061 52.4736C117.746 52.2266 117.506 51.9007 117.341 51.4961C117.18 51.0879 117.1 50.6027 117.1 50.0405ZM118.335 49.5464H123.019C122.943 48.9377 122.712 48.4954 122.326 48.2197C121.943 47.944 121.396 47.8062 120.688 47.8062C119.953 47.8062 119.393 47.9458 119.006 48.2251C118.62 48.5008 118.396 48.9412 118.335 49.5464ZM125.704 53V47.1724H126.913V49.5034H127.423L130.205 47.1724H131.72L128.411 49.9438L131.833 53H130.194L127.391 50.5024H126.913V53H125.704ZM132.069 48.2466V47.1724H138.375V48.2466H135.818V53H134.609V48.2466H132.069ZM138.783 47.1724H140.179C140.398 47.688 140.62 48.2233 140.845 48.7783C141.071 49.3298 141.321 49.951 141.597 50.6421C141.876 51.3332 142.079 51.8327 142.204 52.1406H142.655L144.589 47.1724H145.942L143.719 52.5703C143.554 52.9785 143.416 53.3026 143.305 53.5425C143.194 53.786 143.069 54.0133 142.929 54.2246C142.793 54.4395 142.668 54.597 142.553 54.6973C142.439 54.7975 142.288 54.8853 142.102 54.9604C141.919 55.0356 141.73 55.0822 141.533 55.1001C141.336 55.1216 141.083 55.1323 140.775 55.1323H139.771V54.1118H140.738C141.096 54.1118 141.372 54.076 141.565 54.0044C141.758 53.9364 141.905 53.8307 142.005 53.6875C142.109 53.5443 142.218 53.3151 142.333 53H141.323L138.783 47.1724ZM146.265 50.0405C146.265 48.9914 146.576 48.2054 147.199 47.6826C147.826 47.1562 148.714 46.8931 149.863 46.8931C151.066 46.8931 151.962 47.1759 152.549 47.7417C153.14 48.3075 153.43 49.1794 153.419 50.3574H147.489C147.511 51.0055 147.724 51.4746 148.128 51.7646C148.537 52.0511 149.122 52.1943 149.885 52.1943C150.504 52.1943 150.998 52.1281 151.367 51.9956C151.736 51.8595 151.997 51.6143 152.151 51.2598H153.338C153.202 51.89 152.837 52.3698 152.243 52.6992C151.652 53.0251 150.859 53.188 149.863 53.188C149.287 53.188 148.782 53.1307 148.349 53.0161C147.915 52.9015 147.541 52.7207 147.226 52.4736C146.911 52.2266 146.671 51.9007 146.506 51.4961C146.345 51.0879 146.265 50.6027 146.265 50.0405ZM147.5 49.5464H152.184C152.108 48.9377 151.877 48.4954 151.491 48.2197C151.108 47.944 150.562 47.8062 149.853 47.8062C149.118 47.8062 148.558 47.9458 148.171 48.2251C147.785 48.5008 147.561 48.9412 147.5 49.5464ZM154.869 53V47.1724H157.157L157.915 50.1426C157.965 50.3288 158.146 51.0324 158.457 52.2534H158.731C158.874 51.6089 159.046 50.9053 159.247 50.1426L160.031 47.1724H162.308V53H161.164V47.8867H160.853C160.412 49.6126 159.947 51.3171 159.456 53H157.732C157.231 51.36 156.762 49.6556 156.325 47.8867H156.024V53H154.869ZM167.008 50.0405C167.008 48.9556 167.312 48.1553 167.921 47.6396C168.533 47.1204 169.436 46.8608 170.628 46.8608C171.688 46.8608 172.517 47.0596 173.115 47.457C173.713 47.8545 174.08 48.4668 174.216 49.2939H172.959C172.855 48.8141 172.615 48.4596 172.239 48.2305C171.863 48.0013 171.326 47.8867 170.628 47.8867C169.776 47.8867 169.163 48.0622 168.791 48.4131C168.419 48.7604 168.232 49.3029 168.232 50.0405C168.232 50.771 168.419 51.3117 168.791 51.6626C169.163 52.0099 169.776 52.1836 170.628 52.1836C171.326 52.1836 171.863 52.069 172.239 51.8398C172.615 51.6107 172.855 51.2562 172.959 50.7764H174.216C174.08 51.6071 173.713 52.2212 173.115 52.6187C172.52 53.0125 171.691 53.2095 170.628 53.2095C168.215 53.2095 167.008 52.1532 167.008 50.0405ZM174.941 48.2466V47.1724H181.247V48.2466H178.69V53H177.481V48.2466H174.941ZM182.423 55.2021V47.1348H183.545L183.556 47.8384C184.136 47.1938 184.979 46.8716 186.086 46.8716C187.203 46.8716 188.028 47.1383 188.562 47.6719C189.096 48.2054 189.362 48.995 189.362 50.0405C189.362 51.0861 189.096 51.8739 188.562 52.4038C188.028 52.9338 187.203 53.1987 186.086 53.1987C185.026 53.1987 184.208 52.923 183.631 52.3716V55.2021H182.423ZM184.152 48.4614C183.733 48.8374 183.524 49.3638 183.524 50.0405C183.524 50.7173 183.733 51.2437 184.152 51.6196C184.571 51.9956 185.128 52.1836 185.823 52.1836C186.614 52.1836 187.196 52.0153 187.568 51.6787C187.944 51.3385 188.132 50.7925 188.132 50.0405C188.132 49.285 187.944 48.7389 187.568 48.4023C187.196 48.0658 186.614 47.8975 185.823 47.8975C185.128 47.8975 184.571 48.0854 184.152 48.4614ZM190.437 50.0405C190.437 48.9556 190.741 48.1571 191.35 47.645C191.958 47.1294 192.861 46.8716 194.057 46.8716C195.263 46.8716 196.169 47.1294 196.774 47.645C197.383 48.1571 197.688 48.9556 197.688 50.0405C197.688 51.1183 197.381 51.9168 196.769 52.436C196.157 52.9517 195.253 53.2095 194.057 53.2095C192.861 53.2095 191.958 52.9517 191.35 52.436C190.741 51.9168 190.437 51.1183 190.437 50.0405ZM191.661 50.0405C191.661 50.771 191.847 51.3117 192.22 51.6626C192.592 52.0099 193.204 52.1836 194.057 52.1836C194.909 52.1836 195.521 52.0099 195.894 51.6626C196.27 51.3117 196.458 50.771 196.458 50.0405C196.458 49.3065 196.271 48.7658 195.899 48.4185C195.527 48.0711 194.912 47.8975 194.057 47.8975C193.204 47.8975 192.592 48.0711 192.22 48.4185C191.847 48.7658 191.661 49.3065 191.661 50.0405ZM199.17 53V47.1724H200.368V52.2749H200.647C201.485 50.7244 202.43 49.0236 203.483 47.1724H205.647V53H204.45V47.8867H204.176C203.488 49.1686 202.539 50.873 201.329 53H199.17ZM206.834 48.2466V47.1724H213.14V48.2466H210.583V53H209.375V48.2466H206.834ZM213.854 50.0405C213.854 48.9914 214.166 48.2054 214.789 47.6826C215.416 47.1562 216.304 46.8931 217.453 46.8931C218.656 46.8931 219.551 47.1759 220.139 47.7417C220.729 48.3075 221.02 49.1794 221.009 50.3574H215.079C215.101 51.0055 215.314 51.4746 215.718 51.7646C216.126 52.0511 216.712 52.1943 217.475 52.1943C218.094 52.1943 218.588 52.1281 218.957 51.9956C219.326 51.8595 219.587 51.6143 219.741 51.2598H220.928C220.792 51.89 220.427 52.3698 219.833 52.6992C219.242 53.0251 218.449 53.188 217.453 53.188C216.877 53.188 216.372 53.1307 215.938 53.0161C215.505 52.9015 215.131 52.7207 214.816 52.4736C214.501 52.2266 214.261 51.9007 214.096 51.4961C213.935 51.0879 213.854 50.6027 213.854 50.0405ZM215.09 49.5464H219.773C219.698 48.9377 219.467 48.4954 219.081 48.2197C218.697 47.944 218.151 47.8062 217.442 47.8062C216.708 47.8062 216.148 47.9458 215.761 48.2251C215.375 48.5008 215.151 48.9412 215.09 49.5464ZM221.53 53.0215V51.9526H221.761C222.126 51.9526 222.377 51.8416 222.513 51.6196C222.652 51.394 222.749 50.9554 222.803 50.3037C222.867 49.541 222.916 48.4972 222.948 47.1724H228.271V53H227.062V48.2144H224.038C224.013 49.0057 223.968 49.7021 223.904 50.3037C223.872 50.6654 223.834 50.9715 223.791 51.2222C223.752 51.4728 223.696 51.7056 223.625 51.9204C223.553 52.1353 223.469 52.3089 223.372 52.4414C223.279 52.5703 223.159 52.6813 223.012 52.7744C222.869 52.8639 222.702 52.9284 222.513 52.9678C222.326 53.0036 222.104 53.0215 221.847 53.0215H221.53ZM230.183 53V47.1724H231.391V48.8857H233.889C234.673 48.8857 235.278 49.0558 235.704 49.396C236.13 49.7326 236.343 50.2482 236.343 50.9429C236.343 51.6375 236.13 52.1549 235.704 52.4951C235.278 52.8317 234.673 53 233.889 53H230.183ZM231.391 52.0225H233.899C234.34 52.0225 234.655 51.9329 234.845 51.7539C235.038 51.5713 235.135 51.3009 235.135 50.9429C235.135 50.5848 235.038 50.3162 234.845 50.1372C234.655 49.9546 234.34 49.8633 233.899 49.8633H231.391V52.0225ZM237.541 53V47.1724H238.75V49.4927H242.611V47.1724H243.825V53H242.611V50.5669H238.75V53H237.541ZM245.737 53V47.1724H246.946V48.8857H249.411C250.195 48.8857 250.8 49.0558 251.227 49.396C251.653 49.7326 251.866 50.2482 251.866 50.9429C251.866 51.6375 251.653 52.1549 251.227 52.4951C250.8 52.8317 250.195 53 249.411 53H245.737ZM246.946 52.0225H249.39C249.83 52.0225 250.145 51.9329 250.335 51.7539C250.525 51.5713 250.62 51.3009 250.62 50.9429C250.62 50.5848 250.525 50.3162 250.335 50.1372C250.145 49.9546 249.83 49.8633 249.39 49.8633H246.946V52.0225ZM252.693 53V47.1724H253.901V53H252.693ZM255.813 53V47.1724H258.102L258.859 50.1426C258.909 50.3288 259.09 51.0324 259.401 52.2534H259.675C259.819 51.6089 259.99 50.9053 260.191 50.1426L260.975 47.1724H263.252V53H262.108V47.8867H261.797C261.356 49.6126 260.891 51.3171 260.4 53H258.676C258.175 51.36 257.706 49.6556 257.269 47.8867H256.968V53H255.813ZM265.17 53V47.1724H266.368V52.2749H266.647C267.485 50.7244 268.43 49.0236 269.483 47.1724H271.647V53H270.45V47.8867H270.176C269.488 49.1686 268.539 50.873 267.329 53H265.17ZM276.761 53V47.1724H279.049L279.806 50.1426C279.856 50.3288 280.037 51.0324 280.349 52.2534H280.623C280.766 51.6089 280.938 50.9053 281.138 50.1426L281.922 47.1724H284.2V53H283.056V47.8867H282.744C282.304 49.6126 281.838 51.3171 281.348 53H279.624C279.122 51.36 278.653 49.6556 278.216 47.8867H277.916V53H276.761ZM285.768 51.1953C285.768 50.891 285.822 50.6242 285.929 50.395C286.04 50.1659 286.182 49.985 286.354 49.8525C286.529 49.7165 286.746 49.609 287.003 49.5303C287.261 49.4479 287.517 49.3942 287.771 49.3691C288.026 49.3405 288.31 49.3262 288.625 49.3262H290.946C290.928 48.8177 290.772 48.4507 290.479 48.2251C290.188 47.9959 289.714 47.8796 289.055 47.876C288.507 47.8652 288.054 47.9422 287.696 48.1069C287.342 48.2716 287.116 48.5026 287.02 48.7998H285.8C285.969 48.1911 286.332 47.7274 286.891 47.4087C287.453 47.09 288.171 46.9307 289.044 46.9307C290.058 46.9307 290.822 47.1294 291.338 47.5269C291.854 47.9207 292.111 48.5724 292.111 49.4819V53H291.123L291 52.0117C290.77 52.3913 290.414 52.6867 289.931 52.8979C289.451 53.1056 288.924 53.2095 288.352 53.2095C287.532 53.2095 286.896 53.0412 286.445 52.7046C285.994 52.368 285.768 51.8649 285.768 51.1953ZM286.966 51.1738C286.966 51.915 287.49 52.2856 288.54 52.2856C288.837 52.2856 289.116 52.257 289.377 52.1997C289.639 52.1424 289.888 52.0511 290.124 51.9258C290.364 51.8005 290.556 51.6196 290.699 51.3833C290.846 51.147 290.924 50.8677 290.935 50.5454V50.1157H288.969C288.769 50.1157 288.599 50.1193 288.459 50.1265C288.323 50.1336 288.171 50.1479 288.002 50.1694C287.834 50.1909 287.693 50.2267 287.578 50.2769C287.467 50.3234 287.361 50.3843 287.261 50.4595C287.161 50.5347 287.086 50.6331 287.036 50.7549C286.989 50.873 286.966 51.0127 286.966 51.1738ZM293.298 48.2466V47.1724H299.604V48.2466H297.047V53H295.839V48.2466H293.298ZM300.318 50.0405C300.318 48.9914 300.63 48.2054 301.253 47.6826C301.88 47.1562 302.768 46.8931 303.917 46.8931C305.12 46.8931 306.015 47.1759 306.603 47.7417C307.193 48.3075 307.483 49.1794 307.473 50.3574H301.543C301.564 51.0055 301.778 51.4746 302.182 51.7646C302.59 52.0511 303.176 52.1943 303.938 52.1943C304.558 52.1943 305.052 52.1281 305.421 51.9956C305.79 51.8595 306.051 51.6143 306.205 51.2598H307.392C307.256 51.89 306.891 52.3698 306.296 52.6992C305.706 53.0251 304.912 53.188 303.917 53.188C303.34 53.188 302.836 53.1307 302.402 53.0161C301.969 52.9015 301.595 52.7207 301.28 52.4736C300.965 52.2266 300.725 51.9007 300.56 51.4961C300.399 51.0879 300.318 50.6027 300.318 50.0405ZM301.554 49.5464H306.237C306.162 48.9377 305.931 48.4954 305.544 48.2197C305.161 47.944 304.615 47.8062 303.906 47.8062C303.172 47.8062 302.612 47.9458 302.225 48.2251C301.838 48.5008 301.615 48.9412 301.554 49.5464ZM308.923 55.2021V47.1348H310.045L310.056 47.8384C310.636 47.1938 311.479 46.8716 312.586 46.8716C313.703 46.8716 314.528 47.1383 315.062 47.6719C315.596 48.2054 315.862 48.995 315.862 50.0405C315.862 51.0861 315.596 51.8739 315.062 52.4038C314.528 52.9338 313.703 53.1987 312.586 53.1987C311.526 53.1987 310.708 52.923 310.131 52.3716V55.2021H308.923ZM310.652 48.4614C310.233 48.8374 310.024 49.3638 310.024 50.0405C310.024 50.7173 310.233 51.2437 310.652 51.6196C311.071 51.9956 311.628 52.1836 312.323 52.1836C313.114 52.1836 313.696 52.0153 314.068 51.6787C314.444 51.3385 314.632 50.7925 314.632 50.0405C314.632 49.285 314.444 48.7389 314.068 48.4023C313.696 48.0658 313.114 47.8975 312.323 47.8975C311.628 47.8975 311.071 48.0854 310.652 48.4614ZM317.355 53V47.1724H318.553V52.2749H318.833C319.67 50.7244 320.616 49.0236 321.668 47.1724H323.833V53H322.635V47.8867H322.361C321.674 49.1686 320.725 50.873 319.515 53H317.355ZM325.396 51.1953C325.396 50.891 325.45 50.6242 325.557 50.395C325.668 50.1659 325.81 49.985 325.981 49.8525C326.157 49.7165 326.374 49.609 326.631 49.5303C326.889 49.4479 327.145 49.3942 327.399 49.3691C327.654 49.3405 327.938 49.3262 328.253 49.3262H330.574C330.556 48.8177 330.4 48.4507 330.106 48.2251C329.816 47.9959 329.342 47.8796 328.683 47.876C328.135 47.8652 327.682 47.9422 327.324 48.1069C326.97 48.2716 326.744 48.5026 326.647 48.7998H325.428C325.597 48.1911 325.96 47.7274 326.519 47.4087C327.081 47.09 327.799 46.9307 328.672 46.9307C329.686 46.9307 330.45 47.1294 330.966 47.5269C331.481 47.9207 331.739 48.5724 331.739 49.4819V53H330.751L330.627 52.0117C330.398 52.3913 330.042 52.6867 329.559 52.8979C329.079 53.1056 328.552 53.2095 327.979 53.2095C327.16 53.2095 326.524 53.0412 326.073 52.7046C325.622 52.368 325.396 51.8649 325.396 51.1953ZM326.594 51.1738C326.594 51.915 327.118 52.2856 328.167 52.2856C328.465 52.2856 328.744 52.257 329.005 52.1997C329.267 52.1424 329.516 52.0511 329.752 51.9258C329.992 51.8005 330.183 51.6196 330.327 51.3833C330.473 51.147 330.552 50.8677 330.563 50.5454V50.1157H328.597C328.397 50.1157 328.227 50.1193 328.087 50.1265C327.951 50.1336 327.799 50.1479 327.63 50.1694C327.462 50.1909 327.321 50.2267 327.206 50.2769C327.095 50.3234 326.989 50.3843 326.889 50.4595C326.789 50.5347 326.714 50.6331 326.664 50.7549C326.617 50.873 326.594 51.0127 326.594 51.1738ZM332.83 53.0215V51.9526H333.061C333.426 51.9526 333.676 51.8416 333.812 51.6196C333.952 51.394 334.049 50.9554 334.103 50.3037C334.167 49.541 334.215 48.4972 334.248 47.1724H339.57V53H338.362V48.2144H335.338C335.313 49.0057 335.268 49.7021 335.204 50.3037C335.171 50.6654 335.134 50.9715 335.091 51.2222C335.051 51.4728 334.996 51.7056 334.924 51.9204C334.853 52.1353 334.769 52.3089 334.672 52.4414C334.579 52.5703 334.459 52.6813 334.312 52.7744C334.169 52.8639 334.002 52.9284 333.812 52.9678C333.626 53.0036 333.404 53.0215 333.146 53.0215H332.83ZM341.133 51.1953C341.133 50.891 341.187 50.6242 341.294 50.395C341.405 50.1659 341.547 49.985 341.719 49.8525C341.894 49.7165 342.111 49.609 342.369 49.5303C342.626 49.4479 342.882 49.3942 343.137 49.3691C343.391 49.3405 343.676 49.3262 343.991 49.3262H346.311C346.293 48.8177 346.137 48.4507 345.844 48.2251C345.554 47.9959 345.079 47.8796 344.42 47.876C343.873 47.8652 343.42 47.9422 343.062 48.1069C342.707 48.2716 342.481 48.5026 342.385 48.7998H341.166C341.334 48.1911 341.697 47.7274 342.256 47.4087C342.818 47.09 343.536 46.9307 344.41 46.9307C345.423 46.9307 346.188 47.1294 346.703 47.5269C347.219 47.9207 347.477 48.5724 347.477 49.4819V53H346.488L346.365 52.0117C346.136 52.3913 345.779 52.6867 345.296 52.8979C344.816 53.1056 344.29 53.2095 343.717 53.2095C342.897 53.2095 342.261 53.0412 341.81 52.7046C341.359 52.368 341.133 51.8649 341.133 51.1953ZM342.331 51.1738C342.331 51.915 342.856 52.2856 343.905 52.2856C344.202 52.2856 344.481 52.257 344.743 52.1997C345.004 52.1424 345.253 52.0511 345.489 51.9258C345.729 51.8005 345.921 51.6196 346.064 51.3833C346.211 51.147 346.29 50.8677 346.3 50.5454V50.1157H344.334C344.134 50.1157 343.964 50.1193 343.824 50.1265C343.688 50.1336 343.536 50.1479 343.368 50.1694C343.199 50.1909 343.058 50.2267 342.943 50.2769C342.832 50.3234 342.727 50.3843 342.626 50.4595C342.526 50.5347 342.451 50.6331 342.401 50.7549C342.354 50.873 342.331 51.0127 342.331 51.1738ZM349.389 53V47.1724H351.677L352.434 50.1426C352.484 50.3288 352.665 51.0324 352.977 52.2534H353.25C353.394 51.6089 353.566 50.9053 353.766 50.1426L354.55 47.1724H356.828V53H355.684V47.8867H355.372C354.932 49.6126 354.466 51.3171 353.976 53H352.251C351.75 51.36 351.281 49.6556 350.844 47.8867H350.543V53H349.389ZM358.745 53V47.1724H359.943V52.2749H360.222C361.06 50.7244 362.005 49.0236 363.058 47.1724H365.223V53H364.025V47.8867H363.751C363.063 49.1686 362.115 50.873 360.904 53H358.745Z" fill="#959595"/>
<path d="M51.4283 38.2497V42.7497L47.1429 44.9998L42.8575 47.2498L38.5721 49.4998L34.2858 51.7499L30.0005 53.9999L25.7151 51.7499L21.4288 49.4998L17.1434 47.2498V56.2491L21.4288 58.4999L25.7151 60.75L30.0005 63L34.2858 60.75L38.5721 58.4999L42.8575 56.2491L47.1429 53.9991L51.4283 51.749L55.7146 49.499L60 47.249V33.7488L55.7146 31.4988L51.4283 29.2487L47.1429 26.9987L42.8575 29.2487L38.5721 31.4988L34.2858 33.7488L30.0005 35.9996L25.7151 33.7488V29.2487L30.0005 26.9987L34.2858 24.7487L38.5721 22.4986L42.8575 20.2486L47.1429 17.9986L51.4283 20.2486L55.7146 22.4986L60 24.7487V15.7485L55.7146 13.4985L51.4283 11.2485L47.1429 8.99846L42.8575 11.2485L38.5721 13.4985L34.2858 15.7494L30.0005 17.9994L25.7151 20.2494L21.4288 22.4995L17.1434 24.7495V38.2497L21.4288 40.4997L25.7151 42.7497L30.0005 44.9998L34.2858 42.7497L38.5721 40.4997L42.8575 38.2497L47.1429 35.9996L51.4283 38.2497ZM4.28539 49.499L8.57078 51.749V20.2494L12.8571 17.9994L17.1425 15.7485L21.4279 13.4985L12.8571 8.99846L8.57078 11.2485L4.28539 13.4985L0 15.7494V47.2498L4.28539 49.4998V49.499ZM34.2858 6.75009L38.5721 4.50006L34.2858 2.25003L30.0005 0L25.7151 2.25003L21.4288 4.50006L25.7151 6.75009L30.0005 9.00012L34.2858 6.75009Z" fill="#1064F4"/>
</svg>
