<svg width="30" height="30" viewBox="0 0 30 30" fill="none" xmlns="http://www.w3.org/2000/svg">
<rect x="1" y="1" width="28" height="28" rx="14" stroke="#1064F4" stroke-opacity="0.5"/>
<path d="M16.17 16.5778C15.8217 16.81 15.4171 16.9327 15 16.9327C14.5829 16.9327 14.1783 16.81 13.83 16.5778L8.09321 12.7531C8.06139 12.7319 8.03038 12.7098 8 12.687V18.9541C8 19.6727 8.58311 20.2429 9.28879 20.2429H20.7112C21.4297 20.2429 22 19.6598 22 18.9541V12.687C21.9695 12.7098 21.9385 12.732 21.9066 12.7532L16.17 16.5778Z" fill="#1064F4"/>
<path d="M8.54824 12.0704L14.285 15.8951C14.5022 16.0399 14.7511 16.1122 15 16.1122C15.2489 16.1122 15.4978 16.0398 15.715 15.8951L21.4518 12.0704C21.7951 11.8417 22 11.4588 22 11.0457C22 10.3353 21.422 9.75732 20.7116 9.75732H9.28836C8.57796 9.75735 8 10.3353 8 11.0464C8 11.4588 8.20497 11.8417 8.54824 12.0704Z" fill="#1064F4"/>
</svg>
