<svg width="19" height="19" viewBox="0 0 19 19" fill="none" xmlns="http://www.w3.org/2000/svg">
<path d="M16.7232 2.27808H4.27832V14.7227H16.7232V2.27808Z" fill="#3897F0"/>
<path d="M8.2223 0.000159052L2 10.7773L12.7773 16.9996L18.9996 6.22237L8.2223 0.000159052Z" fill="#3897F0"/>
<path d="M12.7778 0.000445049L2.00049 6.22266L8.22279 16.9998L19.0001 10.7776L12.7778 0.000445049Z" fill="#3897F0"/>
<path d="M9.90282 11.7458L8.73975 10.5085L13.7311 6.00231C13.7756 5.96272 13.8424 5.96519 13.8845 6.00974L14.8966 7.08618C14.9387 7.13072 14.9362 7.20001 14.8892 7.24208L9.90282 11.7458Z" fill="white"/>
<path d="M9.92034 11.7309L11.1997 10.5777L8.15346 7.69236C8.11139 7.65277 8.04953 7.65277 8.00746 7.68989L6.89883 8.66982C6.85181 8.71189 6.84934 8.78613 6.89636 8.83067L9.92034 11.7309Z" fill="white"/>
</svg>
