<svg width="37" height="37" viewBox="0 0 37 37" fill="none" xmlns="http://www.w3.org/2000/svg">
<path d="M25.692 22.8497C25.517 22.6308 24.9045 22.1053 24.5107 21.7988C24.117 21.4923 23.4169 21.0544 23.1544 20.9231C22.7169 20.7041 22.1043 20.7041 21.6668 21.0106C21.3168 21.2296 21.0543 21.4923 20.748 21.7988C20.4417 22.1053 19.9167 22.1929 19.5667 21.9302C18.8667 21.4485 18.2541 20.9231 17.6853 20.3538C17.1166 19.7846 16.5915 19.1277 16.1102 18.4709C15.8477 18.0768 15.8915 17.5952 16.2415 17.2886C16.5478 17.0259 16.8103 16.7194 17.029 16.3691C17.2916 15.8874 17.3353 15.2744 17.1166 14.8365C16.9853 14.5738 16.5478 13.9169 16.2415 13.4791C15.8915 13.085 15.3665 12.4719 15.1477 12.2968C14.7977 11.9903 14.2289 11.9027 13.8351 12.1216C13.4851 12.2968 13.1788 12.5595 12.8726 12.8222H12.8288C11.035 14.3986 12.2163 18.7336 15.7602 22.2367C19.2604 25.7836 23.5919 26.9658 25.167 25.1705L25.2108 25.1267C25.4733 24.8202 25.692 24.5137 25.9108 24.1634C26.0858 23.7693 25.9983 23.2 25.692 22.8497Z" fill="#49AA5D"/>
<rect x="0.5" y="0.5" width="36" height="36" rx="14.5" stroke="#EEEEEE"/>
</svg>
