<svg width="14" height="14" viewBox="0 0 14 14" fill="none" xmlns="http://www.w3.org/2000/svg">
<path d="M6.87182 3.40944L5.34057 1.87819C5.16994 1.70735 4.89257 1.70735 4.72194 1.87819L3.19069 3.40944C3.01985 3.58029 3.01985 3.85722 3.19069 4.02807C3.36132 4.19891 3.63869 4.19891 3.80932 4.02807L4.59376 3.24363V11.8125C4.59376 12.054 4.78976 12.25 5.03126 12.25C5.27276 12.25 5.46876 12.054 5.46876 11.8125V3.24363L6.25319 4.02807C6.33851 4.1136 6.45051 4.15626 6.56251 4.15626C6.67451 4.15626 6.78651 4.1136 6.87182 4.02807C7.04266 3.85722 7.04266 3.58029 6.87182 3.40944Z" fill="#787878"/>
<path d="M10.8093 9.97194C10.6385 9.80109 10.3615 9.80109 10.1907 9.97194L9.40626 10.7564V2.1875C9.40626 1.946 9.21026 1.75 8.96876 1.75C8.72726 1.75 8.53126 1.946 8.53126 2.1875V10.7564L7.74682 9.97194C7.57598 9.80109 7.29882 9.80109 7.12819 9.97194C6.95735 10.1428 6.95735 10.4197 7.12819 10.5906L8.65944 12.1218C8.74498 12.2073 8.85676 12.25 8.96876 12.25C9.08076 12.25 9.19254 12.2073 9.27807 12.1218L10.8093 10.5906C10.9802 10.4197 10.9802 10.1428 10.8093 9.97194Z" fill="#787878"/>
</svg>
