<svg width="30" height="30" viewBox="0 0 30 30" fill="none" xmlns="http://www.w3.org/2000/svg">
<rect x="1" y="1" width="28" height="28" rx="14" stroke="#1064F4" stroke-opacity="0.5"/>
<g clip-path="url(#clip0_255_2254)">
<path d="M15.0017 8H14.9983C11.1386 8 8 11.1395 8 15C8 16.5312 8.4935 17.9505 9.33263 19.1029L8.46025 21.7034L11.1509 20.8433C12.2578 21.5765 13.5781 22 15.0017 22C18.8614 22 22 18.8596 22 15C22 11.1404 18.8614 8 15.0017 8ZM19.0749 17.8849C18.906 18.3617 18.2358 18.7572 17.7011 18.8727C17.3354 18.9506 16.8576 19.0128 15.2494 18.346C13.1922 17.4938 11.8675 15.4034 11.7643 15.2677C11.6654 15.1321 10.933 14.1609 10.933 13.1564C10.933 12.1519 11.4431 11.6628 11.6488 11.4528C11.8176 11.2804 12.0967 11.2016 12.3645 11.2016C12.4511 11.2016 12.529 11.206 12.599 11.2095C12.8046 11.2183 12.9079 11.2305 13.0435 11.5551C13.2124 11.962 13.6236 12.9665 13.6726 13.0698C13.7225 13.173 13.7724 13.313 13.7024 13.4486C13.6368 13.5886 13.579 13.6507 13.4757 13.7697C13.3725 13.8888 13.2745 13.9798 13.1712 14.1075C13.0767 14.2186 12.97 14.3376 13.089 14.5433C13.208 14.7445 13.6192 15.4156 14.2248 15.9546C15.0061 16.6502 15.6396 16.8725 15.8663 16.967C16.0351 17.037 16.2364 17.0204 16.3597 16.8891C16.5164 16.7203 16.7098 16.4403 16.9066 16.1646C17.0466 15.9669 17.2234 15.9424 17.4089 16.0124C17.5979 16.078 18.598 16.5724 18.8036 16.6747C19.0092 16.778 19.1449 16.827 19.1947 16.9136C19.2437 17.0002 19.2437 17.4071 19.0749 17.8849Z" fill="#1064F4"/>
</g>
<defs>
<clipPath id="clip0_255_2254">
<rect width="14" height="14" fill="white" transform="translate(8 8)"/>
</clipPath>
</defs>
</svg>
